# xmcd CD database file
#
# Track frame offsets:
#	182
#	13460
#	30070
#	45855
#	61095
#	76302
#	90185
#	106470
#	122565
#	135645
#	150605
#	163930
#	178335
#	191627
#	206107
#	220202
#
# Disc length: 3121 seconds
#
# Revision: 1
# Processed by: cddbd v1.4PL0 Copyright (c) Steve Scherf et al.
# Submitted via: CDex 1.50
#
DISCID=cf0c2f10
DTITLE=Duke Ellington - The Indispensable Duke Ellington Vol. 7-8 (1941-1942) CD 2
DYEAR=1942
DGENRE=Jazz
TTITLE0=Take The 'A' Train
TTITLE1=Jumpin' Punkins
TTITLE2=John Hardy's Wife
TTITLE3=Blue Serge
TTITLE4=After All
TTITLE5=Are You Sticking ?
TTITLE6=Just A-Sittin' And a Rockin'
TTITLE7=The Giddybug Gallop
TTITLE8=Chocolate Shake
TTITLE9=I Got It Bad And That Ain't Good
TTITLE10=Clementine
TTITLE11=Brown-Skinned Gal In The Calico Gown
TTITLE12=Jump For Joy
TTITLE13=Five O'Clock Drag
TTITLE14=Rocks In My Bed
TTITLE15=Bli-Blip
EXTD=YEAR: 1942
EXTT0=
EXTT1=
EXTT2=
EXTT3=
EXTT4=
EXTT5=
EXTT6=
EXTT7=
EXTT8=
EXTT9=
EXTT10=
EXTT11=
EXTT12=
EXTT13=
EXTT14=
EXTT15=
PLAYORDER=
